<svg width="112" height="84" viewBox="0 0 112 84" fill="none" xmlns="http://www.w3.org/2000/svg">
<path d="M34.5747 67.8841L11.3779 44.7039C10.128 43.4548 8.43272 42.7531 6.66504 42.7531C4.89736 42.7531 3.20208 43.4548 1.95214 44.7039C0.702207 45.9529 0 47.647 0 49.4134C0 50.288 0.172398 51.1541 0.507347 51.9622C0.842297 52.7702 1.33324 53.5044 1.95214 54.1229L29.8953 82.0461C32.5024 84.6513 36.7139 84.6513 39.321 82.0461L110.048 11.3698C111.298 10.1208 112 8.42669 112 6.66027C112 4.89386 111.298 3.19979 110.048 1.95075C108.798 0.701707 107.103 0 105.335 0C103.567 0 101.872 0.701707 100.622 1.95075L34.5747 67.8841Z" fill="#FDF3E8"/>
</svg>
