<svg width="24" height="24" viewBox="0 0 24 24" fill="none" xmlns="http://www.w3.org/2000/svg">
<rect width="24" height="24" rx="12" fill="#FDF3E8"/>
<path d="M16.6666 15.3333H18.6666L16 18L13.3333 15.3333H15.3333V6H16.6666M11.3333 12.6667V14L9.11331 16.6667H11.3333V18H7.33331V16.6667L9.55331 14H7.33331V12.6667M9.99998 6H8.66665C7.93331 6 7.33331 6.6 7.33331 7.33333V11.3333H8.66665V10H9.99998V11.3333H11.3333V7.33333C11.3333 6.97971 11.1928 6.64057 10.9428 6.39052C10.6927 6.14048 10.3536 6 9.99998 6ZM9.99998 8.66667H8.66665V7.33333H9.99998V8.66667Z" fill="#2E5245"/>
</svg>
