<svg width="24" height="24" viewBox="0 0 24 24" fill="none" xmlns="http://www.w3.org/2000/svg">
<rect width="24" height="24" rx="12" fill="#2E5245"/>
<path d="M5.59929 11.2C5.80322 11.2002 5.99936 11.2783 6.14765 11.4183C6.29593 11.5583 6.38517 11.7496 6.39712 11.9531C6.40907 12.1567 6.34283 12.3571 6.21195 12.5135C6.08106 12.6698 5.8954 12.7703 5.6929 12.7944L5.59929 12.8H4.7992C4.59528 12.7998 4.39913 12.7217 4.25085 12.5817C4.10256 12.4417 4.01333 12.2504 4.00138 12.0469C3.98943 11.8433 4.05566 11.6429 4.18655 11.4865C4.31743 11.3302 4.50309 11.2297 4.70559 11.2056L4.7992 11.2H5.59929ZM12 4C12.196 4.00003 12.3851 4.07196 12.5316 4.20217C12.678 4.33238 12.7716 4.5118 12.7945 4.7064L12.8001 4.8V5.6C12.7999 5.8039 12.7218 6.00003 12.5818 6.14829C12.4418 6.29656 12.2505 6.38579 12.0469 6.39774C11.8433 6.40969 11.6429 6.34346 11.4865 6.21259C11.3301 6.08172 11.2296 5.89608 11.2055 5.6936L11.1999 5.6V4.8C11.1999 4.58783 11.2842 4.38434 11.4343 4.23431C11.5843 4.08429 11.7878 4 12 4ZM19.2008 11.2C19.4047 11.2002 19.6009 11.2783 19.7492 11.4183C19.8974 11.5583 19.9867 11.7496 19.9986 11.9531C20.0106 12.1567 19.9443 12.3571 19.8135 12.5135C19.6826 12.6698 19.4969 12.7703 19.2944 12.7944L19.2008 12.8H18.4007C18.1968 12.7998 18.0006 12.7217 17.8524 12.5817C17.7041 12.4417 17.6148 12.2504 17.6029 12.0469C17.5909 11.8433 17.6572 11.6429 17.7881 11.4865C17.9189 11.3302 18.1046 11.2297 18.3071 11.2056L18.4007 11.2H19.2008ZM6.31377 6.3144C6.45154 6.17666 6.63484 6.09391 6.82928 6.08169C7.02372 6.06946 7.21595 6.1286 7.36989 6.248L7.4451 6.3144L8.00516 6.8744C8.14865 7.01837 8.23196 7.21155 8.23817 7.41471C8.24437 7.61787 8.173 7.81577 8.03856 7.96822C7.90412 8.12068 7.71668 8.21624 7.51432 8.23552C7.31196 8.25479 7.10985 8.19633 6.94904 8.072L6.87383 8.0056L6.31377 7.4456C6.16378 7.29558 6.07951 7.09213 6.07951 6.88C6.07951 6.66787 6.16378 6.46442 6.31377 6.3144ZM16.5549 6.3144C16.6989 6.17092 16.8921 6.08762 17.0953 6.08142C17.2985 6.07521 17.4964 6.14657 17.6488 6.281C17.8013 6.41543 17.8969 6.60284 17.9162 6.80518C17.9355 7.00752 17.877 7.20961 17.7526 7.3704L17.6862 7.4456L17.1262 8.0056C16.9822 8.14908 16.789 8.23238 16.5858 8.23858C16.3826 8.24479 16.1847 8.17343 16.0322 8.039C15.8798 7.90457 15.7842 7.71716 15.7649 7.51482C15.7456 7.31248 15.8041 7.11039 15.9284 6.9496L15.9948 6.8744L16.5549 6.3144ZM13.6002 16.8C13.8124 16.8 14.0159 16.8843 14.1659 17.0343C14.316 17.1843 14.4003 17.3878 14.4003 17.6C14.4003 18.2365 14.1474 18.847 13.6972 19.2971C13.2471 19.7471 12.6366 20 12 20C11.3634 20 10.7529 19.7471 10.3028 19.2971C9.85262 18.847 9.59973 18.2365 9.59973 17.6C9.59976 17.4041 9.67171 17.2149 9.80193 17.0685C9.93215 16.9221 10.1116 16.8285 10.3062 16.8056L10.3998 16.8H13.6002ZM12 7.2C13.0075 7.2 13.9896 7.51698 14.8069 8.10604C15.6243 8.6951 16.2356 9.52637 16.5542 10.4821C16.8728 11.4378 16.8826 12.4696 16.5822 13.4312C16.2818 14.3928 15.6864 15.2355 14.8803 15.84C14.77 15.9228 14.6402 15.9757 14.5035 15.9936L14.4003 16H9.59973C9.42662 16 9.25817 15.9439 9.11968 15.84C8.31364 15.2355 7.71825 14.3928 7.41783 13.4312C7.11741 12.4696 7.1272 11.4378 7.44582 10.4821C7.76443 9.52637 8.37571 8.6951 9.19308 8.10604C10.0104 7.51698 10.9925 7.2 12 7.2Z" fill="#FDF3E8"/>
</svg>
